<?xml version="1.0" standalone="no"?>
<!DOCTYPE svg PUBLIC "-//W3C//DTD SVG 20010904//EN"
 "http://www.w3.org/TR/2001/REC-SVG-20010904/DTD/svg10.dtd">
<svg version="1.0" xmlns="http://www.w3.org/2000/svg"
 width="2495.000000pt" height="2500.000000pt" viewBox="0 0 2495.000000 2500.000000"
 preserveAspectRatio="xMidYMid meet">

<g transform="translate(0.000000,2500.000000) scale(0.100000,-0.100000)"
fill="#000" stroke="none">
<path d="M10585 24993 c-155 -20 -777 -139 -1020 -194 -348 -80 -667 -195
-930 -336 -336 -179 -581 -358 -826 -603 -287 -286 -498 -573 -682 -927 -199
-385 -310 -763 -363 -1243 -21 -189 -24 -647 -5 -825 39 -384 79 -610 172
-975 92 -361 130 -492 238 -810 204 -607 449 -1192 836 -2000 140 -294 466
-932 615 -1205 15 -27 58 -106 95 -175 77 -141 410 -736 460 -820 18 -30 68
-116 110 -190 234 -405 596 -1010 838 -1397 43 -68 110 -176 150 -240 428
-684 1326 -2044 1383 -2094 11 -9 29 -20 41 -23 33 -10 88 17 101 50 17 44
125 1277 172 1949 50 727 56 834 75 1215 53 1061 70 1864 61 2880 -3 432 -8
814 -11 850 -3 36 -7 164 -9 285 -2 121 -8 267 -14 325 -9 91 -26 385 -37 675
-4 111 -14 221 -25 300 -5 33 -11 96 -15 140 -3 44 -10 130 -15 190 -5 61 -12
155 -15 210 -4 55 -12 145 -20 200 -8 55 -16 125 -20 155 -3 30 -10 80 -15
110 -5 30 -26 183 -45 340 -20 157 -47 359 -61 450 -13 91 -31 215 -40 275 -8
61 -33 198 -55 305 -22 107 -49 240 -59 295 -10 55 -30 161 -44 235 -14 74
-41 191 -60 260 -19 69 -50 190 -69 270 -19 80 -51 201 -71 270 -32 110 -59
196 -163 525 -86 275 -239 657 -354 888 -136 273 -226 418 -257 416 -9 -1 -30
-4 -47 -6z"/>
<path d="M14254 24943 c-130 -201 -314 -581 -413 -850 -100 -270 -144 -395
-185 -523 -25 -80 -55 -172 -66 -205 -11 -33 -24 -78 -29 -100 -5 -22 -19 -76
-31 -120 -38 -138 -130 -507 -145 -575 -7 -36 -27 -121 -43 -190 -17 -69 -45
-201 -62 -295 -18 -93 -43 -224 -57 -290 -13 -66 -26 -138 -29 -160 -2 -22 -9
-53 -14 -70 -17 -54 -40 -189 -40 -240 0 -27 -7 -77 -14 -110 -15 -63 -23
-116 -31 -200 -3 -27 -12 -95 -20 -150 -17 -111 -33 -251 -65 -540 -6 -55 -13
-114 -15 -131 -2 -17 -7 -69 -11 -115 -3 -46 -8 -86 -9 -89 -2 -3 -6 -55 -10
-115 -4 -61 -8 -115 -10 -122 -2 -6 -7 -60 -11 -120 -3 -59 -8 -110 -9 -113
-2 -3 -6 -59 -10 -125 -4 -66 -8 -126 -11 -133 -2 -7 -8 -95 -14 -195 -6 -100
-17 -297 -25 -437 -8 -140 -17 -331 -21 -425 -3 -93 -10 -228 -14 -300 -21
-342 -17 -2339 4 -2635 3 -30 7 -147 11 -260 6 -215 31 -801 40 -955 3 -49 12
-209 20 -355 46 -801 184 -2526 215 -2676 13 -60 33 -83 82 -91 29 -4 40 0 66
23 59 55 761 1110 1197 1799 458 724 692 1107 1097 1795 73 124 354 616 443
775 198 356 294 532 412 755 250 472 457 872 512 990 29 63 73 156 97 206 24
51 44 94 44 97 0 3 32 75 70 159 39 84 88 191 110 238 21 47 61 135 89 195 28
61 51 116 51 122 0 7 18 52 39 100 60 133 152 373 240 620 28 79 59 164 69
190 11 27 38 109 61 183 24 74 54 167 67 205 14 39 30 90 35 114 5 24 18 74
29 112 28 94 100 374 111 429 4 25 17 92 28 150 47 256 70 422 91 670 6 69 13
132 15 140 9 34 6 573 -3 675 -33 359 -98 633 -218 929 -157 384 -304 629
-631 1050 -67 88 -376 378 -506 477 -33 24 -78 58 -100 76 -23 18 -86 59 -139
93 -54 34 -98 65 -98 70 0 13 -50 39 -300 154 -191 87 -390 158 -645 227 -99
27 -202 57 -230 65 -61 19 -193 48 -295 64 -41 6 -133 23 -205 36 -182 35
-483 84 -516 84 -5 0 -25 -26 -45 -57z"/>
<path d="M3662 21523 c-770 -810 -1378 -1757 -1661 -2587 -194 -568 -251
-1047 -191 -1601 66 -619 345 -1271 773 -1808 172 -215 305 -348 725 -726 345
-310 852 -706 1342 -1048 158 -111 904 -606 1090 -723 1204 -763 2844 -1687
4303 -2427 650 -329 654 -330 696 -277 12 15 21 40 21 57 0 78 -831 1781
-1273 2607 -22 41 -60 113 -85 160 -25 47 -71 132 -102 190 -32 58 -77 141
-100 185 -423 790 -1182 2084 -1812 3091 -336 536 -1043 1619 -1261 1929 -19
28 -137 199 -263 380 -502 727 -1118 1573 -1584 2175 -205 265 -455 579 -462
580 -3 0 -74 -71 -156 -157z"/>
<path d="M21110 21667 c-9 -7 -81 -95 -160 -197 -80 -101 -172 -214 -206 -250
-33 -36 -86 -103 -116 -150 -31 -47 -82 -109 -113 -139 -31 -30 -94 -111 -140
-181 -45 -70 -111 -158 -145 -196 -83 -93 -190 -237 -231 -309 -18 -33 -177
-262 -354 -510 -537 -751 -800 -1132 -1245 -1800 -239 -358 -366 -551 -624
-950 -42 -66 -100 -154 -129 -195 -57 -83 -115 -176 -142 -230 -10 -19 -95
-161 -190 -315 -594 -967 -1184 -1990 -1655 -2865 -84 -157 -167 -312 -185
-345 -133 -247 -496 -957 -680 -1330 -308 -623 -587 -1213 -607 -1282 -14 -50
13 -100 63 -114 38 -12 41 -11 341 141 1175 593 2221 1159 3248 1757 1190 693
2160 1322 2965 1923 604 452 1183 966 1473 1310 491 581 773 1221 854 1935 16
145 16 580 0 720 -59 502 -212 990 -473 1514 -161 321 -219 421 -424 731 -259
391 -529 732 -851 1075 -221 236 -255 267 -274 252z"/>
<path d="M24620 15266 c-52 -29 -210 -115 -350 -191 -140 -77 -318 -173 -395
-215 -77 -42 -302 -166 -500 -275 -198 -109 -385 -212 -415 -228 -298 -163
-610 -339 -678 -384 -46 -29 -80 -48 -76 -42 3 6 -13 0 -37 -14 -24 -13 -132
-73 -239 -132 -487 -269 -1682 -948 -1912 -1087 -53 -32 -101 -58 -106 -58 -6
0 -12 -4 -14 -9 -1 -5 -28 -21 -58 -36 -85 -43 -779 -443 -1325 -765 -164 -97
-661 -390 -675 -399 -12 -7 -618 -373 -756 -456 -161 -97 -425 -259 -494 -303
-47 -29 -161 -101 -255 -159 -93 -58 -228 -142 -300 -188 -71 -45 -238 -151
-370 -235 -374 -239 -797 -519 -832 -553 -27 -25 -33 -39 -33 -72 0 -23 5 -46
12 -53 19 -19 6100 -17 6154 2 22 7 45 11 52 9 18 -7 253 36 285 52 15 8 34
12 41 9 14 -5 235 45 331 75 223 71 426 140 520 178 145 58 419 200 575 297
157 99 401 272 460 328 25 23 70 61 100 83 47 35 173 151 304 280 77 75 147
156 142 163 -3 5 6 15 19 22 69 37 343 408 525 710 57 93 238 446 245 474 1 6
14 36 28 67 60 132 166 458 209 644 5 22 11 48 14 59 4 13 2 16 -6 11 -7 -4
-6 2 3 16 39 61 102 498 119 824 22 437 -20 867 -128 1305 -31 124 -83 301
-88 299 0 0 -44 -24 -96 -53z m40 -220 c0 -2 -8 -10 -17 -17 -16 -13 -17 -12
-4 4 13 16 21 21 21 13z m-60 -69 c0 -2 -10 -12 -22 -23 l-23 -19 19 23 c18
21 26 27 26 19z m-530 -60 c0 -1 -26 -27 -57 -57 l-58 -55 55 58 c50 53 60 62
60 54z m760 -421 c0 -2 -8 -10 -17 -17 -16 -13 -17 -12 -4 4 13 16 21 21 21
13z m-780 -401 c-24 -25 -46 -45 -49 -45 -3 0 15 20 39 45 24 25 46 45 49 45
3 0 -15 -20 -39 -45z m270 -708 c0 -2 -15 -16 -32 -33 l-33 -29 29 33 c28 30
36 37 36 29z m420 -381 c0 -2 -8 -10 -17 -17 -16 -13 -17 -12 -4 4 13 16 21
21 21 13z m50 -49 c0 -2 -10 -12 -22 -23 l-23 -19 19 23 c18 21 26 27 26 19z
m-90 -80 c0 -2 -15 -16 -32 -33 l-33 -29 29 33 c28 30 36 37 36 29z m60 -40
c0 -2 -17 -19 -37 -38 l-38 -34 34 38 c33 34 41 42 41 34z m-540 -11 c0 -2 -8
-10 -17 -17 -16 -13 -17 -12 -4 4 13 16 21 21 21 13z m-60 -50 c0 -2 -8 -10
-17 -17 -16 -13 -17 -12 -4 4 13 16 21 21 21 13z m-60 -50 c0 -2 -8 -10 -17
-17 -16 -13 -17 -12 -4 4 13 16 21 21 21 13z m-70 -60 c0 -2 -8 -10 -17 -17
-16 -13 -17 -12 -4 4 13 16 21 21 21 13z m-6423 -1702 c-3 -3 -12 -4 -19 -1
-8 3 -5 6 6 6 11 1 17 -2 13 -5z m-60 -10 c-3 -3 -12 -4 -19 -1 -8 3 -5 6 6 6
11 1 17 -2 13 -5z m-70 -10 c-3 -3 -12 -4 -19 -1 -8 3 -5 6 6 6 11 1 17 -2 13
-5z m70 -630 c-3 -3 -12 -4 -19 -1 -8 3 -5 6 6 6 11 1 17 -2 13 -5z m-70 -10
c-3 -3 -12 -4 -19 -1 -8 3 -5 6 6 6 11 1 17 -2 13 -5z m-80 -10 c-3 -3 -12 -4
-19 -1 -8 3 -5 6 6 6 11 1 17 -2 13 -5z m-1599 -461 c-15 -2 -42 -2 -60 0 -18
2 -6 4 27 4 33 0 48 -2 33 -4z"/>
<path d="M217 15292 c-12 -20 -92 -306 -113 -402 -99 -459 -128 -986 -79
-1433 8 -76 14 -182 14 -235 -1 -107 13 -181 66 -342 37 -115 126 -407 155
-510 11 -36 46 -126 79 -200 34 -74 61 -142 61 -151 0 -8 18 -45 40 -82 22
-36 40 -68 40 -71 0 -6 48 -89 164 -284 101 -171 255 -389 393 -560 184 -226
262 -308 472 -497 68 -60 138 -131 157 -157 65 -88 143 -150 250 -198 54 -24
164 -84 244 -134 568 -350 1240 -577 1930 -650 352 -38 379 -38 1985 -32 2976
10 3989 17 4016 27 29 11 59 57 59 91 0 13 -12 36 -27 52 -29 31 -393 273
-899 599 -586 375 -1466 915 -2269 1392 -165 98 -365 217 -445 265 -80 48
-386 226 -680 395 -294 169 -560 322 -590 340 -56 33 -652 373 -1075 612 -250
142 -938 528 -1075 603 -47 26 -200 111 -340 190 -346 194 -849 472 -1110 614
-118 65 -226 129 -239 143 -23 25 -100 64 -196 100 -28 11 -113 55 -190 99
-77 44 -178 100 -225 124 -47 24 -166 87 -265 140 -244 132 -303 161 -308 152z"/>
<path d="M9220 8785 c-355 -13 -791 -28 -970 -34 -179 -6 -575 -20 -880 -31
-305 -11 -762 -26 -1015 -35 -253 -8 -575 -19 -715 -25 -140 -5 -340 -12 -445
-15 -104 -3 -226 -8 -270 -11 -44 -2 -424 -16 -845 -29 -708 -23 -1746 -62
-1797 -68 -22 -2 -21 -3 10 -54 18 -28 50 -83 72 -123 22 -39 73 -121 113
-183 41 -61 81 -125 89 -142 8 -16 28 -43 43 -60 15 -16 71 -88 125 -160 361
-479 748 -849 1205 -1155 122 -82 321 -187 481 -255 491 -207 958 -262 1444
-169 158 30 310 83 625 216 301 128 343 148 580 277 129 71 285 154 345 186
164 87 396 228 523 319 195 139 223 158 382 261 226 145 726 482 1020 685 656
455 690 481 690 536 0 50 -70 96 -140 93 -14 -1 -315 -12 -670 -24z"/>
<path d="M14963 8786 c-17 -8 -36 -24 -43 -35 -12 -23 -5 -77 13 -101 12 -16
299 -221 667 -477 161 -112 823 -552 1060 -705 708 -456 1354 -822 1805 -1023
194 -86 214 -95 222 -95 5 0 20 -6 34 -14 40 -21 224 -81 319 -104 261 -65
602 -65 918 -2 282 56 507 135 767 269 580 299 1084 761 1576 1446 137 191
369 554 369 577 0 11 -98 17 -440 28 -184 6 -519 17 -745 25 -225 8 -669 24
-985 35 -316 11 -640 22 -720 25 -80 3 -341 12 -580 20 -239 9 -624 22 -855
30 -231 8 -490 17 -575 20 -255 8 -709 24 -1150 40 -355 13 -775 27 -1470 49
-119 4 -162 2 -187 -8z"/>
<path d="M10 2055 l0 -2005 455 0 455 0 0 835 0 835 1020 0 1020 0 0 -835 0
-835 455 0 455 0 0 2005 0 2005 -455 0 -455 0 0 -815 0 -815 -1020 0 -1020 0
0 815 0 815 -455 0 -455 0 0 -2005z"/>
<path d="M4623 2668 c3 -1241 5 -1406 20 -1508 34 -229 63 -333 130 -465 81
-157 339 -378 562 -481 310 -143 673 -208 1170 -208 603 -1 1031 97 1345 307
301 200 430 382 496 696 46 221 47 241 51 1684 l4 1367 -460 0 -461 0 0 -1297
c0 -1366 -2 -1411 -46 -1576 -56 -209 -177 -360 -354 -440 -246 -112 -776
-129 -1054 -35 -269 91 -412 269 -473 590 -14 73 -17 250 -20 1421 l-4 1337
-455 0 -455 0 4 -1392z"/>
<path d="M10372 3973 c-61 -133 -1783 -3896 -1789 -3911 -4 -10 93 -12 478
-10 l484 3 192 470 192 470 947 0 948 0 197 -470 197 -470 507 -3 c481 -2 507
-1 501 15 -4 10 -420 912 -924 2005 l-917 1987 -486 1 -486 0 -41 -87z m827
-1490 c177 -413 321 -754 321 -757 0 -3 -291 -6 -646 -6 -513 0 -645 3 -641
13 155 389 632 1525 638 1515 4 -7 151 -351 328 -765z"/>
<path d="M12673 4053 c3 -5 232 -640 511 -1413 278 -773 601 -1670 719 -1995
l213 -590 556 -3 c524 -2 557 -1 562 15 6 19 516 1904 693 2561 59 221 110
402 113 402 3 0 158 -492 343 -1092 186 -601 393 -1271 460 -1488 l123 -395
561 -3 560 -2 670 2002 669 2003 -465 3 c-255 1 -466 1 -467 -1 -3 -3 -257
-835 -766 -2512 l-173 -571 -67 211 c-36 115 -229 725 -428 1355 -199 630
-388 1229 -421 1333 l-60 187 -539 0 c-297 0 -540 -2 -540 -5 0 -6 -320 -1174
-652 -2380 l-193 -700 -148 455 c-82 250 -307 943 -501 1540 l-352 1085 -493
3 c-271 1 -490 -1 -488 -5z"/>
<path d="M21340 4048 c-513 -42 -918 -206 -1196 -482 -151 -151 -235 -275
-323 -476 -121 -279 -177 -575 -188 -995 -13 -487 53 -849 212 -1165 211 -420
638 -736 1123 -830 232 -45 341 -50 1310 -50 l912 0 0 344 0 344 -852 5 c-927
4 -959 6 -1138 62 -230 73 -379 208 -460 417 -42 110 -68 232 -75 353 -3 55
-8 112 -10 128 l-4 27 1269 0 1270 0 0 350 0 350 -1265 0 -1265 0 6 58 c42
429 231 697 571 811 169 56 137 55 1081 58 l872 4 0 349 0 350 -872 -1 c-480
-1 -920 -6 -978 -11z"/>
<path d="M24000 2055 l0 -2005 475 0 475 0 0 2005 0 2005 -475 0 -475 0 0
-2005z"/>
</g>
</svg>
